<svg xmlns="http://www.w3.org/2000/svg" viewBox="0 0 96 96" role="img" aria-label="VFarmers avatar 06 (carrot)">
  <defs>
    <linearGradient id="g06" x1="0" y1="0" x2="1" y2="1">
      <stop offset="0" stop-color="hsl(150,68%,55%)"/>
      <stop offset="1" stop-color="hsl(170,70%,38%)"/>
    </linearGradient>
  </defs>
  <rect width="96" height="96" rx="22" fill="url(#g06)"/>
  <g fill="#fff">
    <path d="M48 73 L39 45 Q48 41 57 45 Z"/>
    <path d="M48 43 C44 33 40 31 35 31 C39 37 41 41 48 43 Z"/>
    <path d="M48 43 C48 31 48 29 48 26 C51 30 51 38 48 43 Z"/>
    <path d="M48 43 C52 33 56 31 61 31 C57 37 55 41 48 43 Z"/>
  </g>
  <g stroke="url(#g06)" stroke-width="2" stroke-linecap="round">
    <path d="M45 52 l4 1"/>
    <path d="M46 60 l4 1"/>
  </g>
</svg>
