<svg xmlns="http://www.w3.org/2000/svg" viewBox="0 0 96 96" role="img" aria-label="VFarmers avatar 07 (corn)">
  <defs>
    <linearGradient id="g07" x1="0" y1="0" x2="1" y2="1">
      <stop offset="0" stop-color="hsl(180,68%,55%)"/>
      <stop offset="1" stop-color="hsl(200,70%,38%)"/>
    </linearGradient>
  </defs>
  <rect width="96" height="96" rx="22" fill="url(#g07)"/>
  <path d="M40 58 C32 64 30 67 27 71 C34 71 41 69 45 62 Z" fill="#fff"/>
  <path d="M56 58 C64 64 66 67 69 71 C62 71 55 69 51 62 Z" fill="#fff"/>
  <path d="M48 24 C58 24 60 40 56 58 C54 66 42 66 40 58 C36 40 38 24 48 24 Z" fill="#fff"/>
  <g fill="none" stroke="url(#g07)" stroke-width="2">
    <path d="M44 28 V62"/>
    <path d="M48 26 V64"/>
    <path d="M52 28 V62"/>
    <path d="M40 34 H56"/>
    <path d="M39 42 H57"/>
    <path d="M39 50 H57"/>
    <path d="M41 58 H55"/>
  </g>
</svg>
