<svg xmlns="http://www.w3.org/2000/svg" viewBox="0 0 96 96" role="img" aria-label="VFarmers avatar 09 (hen)">
  <defs>
    <linearGradient id="g09" x1="0" y1="0" x2="1" y2="1">
      <stop offset="0" stop-color="hsl(240,68%,55%)"/>
      <stop offset="1" stop-color="hsl(260,70%,38%)"/>
    </linearGradient>
  </defs>
  <rect width="96" height="96" rx="22" fill="url(#g09)"/>
  <g fill="#fff">
    <ellipse cx="45" cy="55" rx="18" ry="14"/>
    <circle cx="61" cy="44" r="9"/>
    <path d="M29 50 q-9 -5 -11 -14 q11 1 17 10 z"/>
    <path d="M56 35 q3 -6 6 -2 q3 -5 6 0 q2 -4 4 1 q-4 4 -8 3 q-4 1 -8 -2 z"/>
    <path d="M70 43 l9 1 -8 4 z"/>
  </g>
  <circle cx="63" cy="42" r="1.9" fill="url(#g09)"/>
  <g stroke="#fff" stroke-width="3" stroke-linecap="round">
    <path d="M42 69 v6"/>
    <path d="M51 69 v6"/>
  </g>
</svg>
