<svg xmlns="http://www.w3.org/2000/svg" viewBox="0 0 96 96" role="img" aria-label="VFarmers avatar 11 (apple)">
  <defs>
    <linearGradient id="g11" x1="0" y1="0" x2="1" y2="1">
      <stop offset="0" stop-color="hsl(300,68%,55%)"/>
      <stop offset="1" stop-color="hsl(320,70%,38%)"/>
    </linearGradient>
  </defs>
  <rect width="96" height="96" rx="22" fill="url(#g11)"/>
  <path d="M48 40 C41 33 29 37 29 50 C29 64 39 73 44 73 C46 73 47 71 48 71 C49 71 50 73 52 73 C57 73 67 64 67 50 C67 37 55 33 48 40 Z" fill="#fff"/>
  <path d="M48 40 q-1 -8 2 -13" fill="none" stroke="#fff" stroke-width="3" stroke-linecap="round"/>
  <path d="M50 29 q9 -5 13 1 q-9 5 -13 -1 z" fill="#fff"/>
</svg>
